<svg xmlns="http://www.w3.org/2000/svg" width="969.77" height="121.956" viewBox="0 0 969.77 121.956">
  <g id="Group_5673" data-name="Group 5673" transform="translate(-3.889 1200.543)">
    <path id="Path_11428" data-name="Path 11428" d="M543.264-1143.532c-16.678-21.671-3.187-55.512,27.268-55.876h61.957l-5.589,15.123H576.815c-8.324.116-12.975,10.327-8.324,16.546,7.736,11.9,20.854,20.222,29.116,32.426,17.924,24.081-.154,55.457-26.853,55.531H502.633l5.6-15.136h53.774c8.254-.087,12.87-10.266,8.556-16.356-6.8-11.28-18.87-21.957-27.3-32.258Zm-62.9,63.75H446.522l44.091-119.607h33.852l-44.1,119.607Zm166.547,0H613.046l44.1-119.607h33.838l-44.068,119.607Zm51.144-83.363c11.781-24.9,36.623-38.118,59.6-37.368h20.991c17.7.834,28.421,15.449,29.365,27.542a35.822,35.822,0,0,1-.216,7.842c-.286,1.359-.589,2.707-.934,4.085a200.329,200.329,0,0,1-16.6,45.057c-11.788,24.909-36.623,38.145-59.62,37.367H709.652c-17.691-.805-28.43-15.436-29.347-27.529a33.544,33.544,0,0,1,.209-7.848c.277-1.34.6-2.711.924-4.069a200.46,200.46,0,0,1,16.62-45.079Zm64.046-24.967h0c-12.467.36-22.953,7.487-27.472,19.211l-22.353,60.891a11,11,0,0,0-.814,4.632v.016a12.429,12.429,0,0,0,11.433,12.374h3.3a29.676,29.676,0,0,0,27.488-19.221l22.346-60.907a11.121,11.121,0,0,0,.824-4.609v-.042a12.45,12.45,0,0,0-11.457-12.372l-3.295.027Zm-360.136,70.94,55.039-82.217h19.881l-76.852,114.556h0a11.348,11.348,0,0,1-9.087,5.051h-.715a2.752,2.752,0,0,0-.4-.02.182.182,0,0,1,.1.02H371.091l-9.4-119.607H395.52l6.448,82.217Zm441.716-43.562-.135-1.478-30.53,82.43H795.581l44.288-119.607h22.072l31.863,80.821,29.937-80.821h17.453l-44.3,119.607h-15.95a11.406,11.406,0,0,1-9.853-6.943l-27.41-74.009Z" fill="#717171" fill-rule="evenodd"/>
    <path id="Path_11429" data-name="Path 11429" d="M177.707-1079.782H141.692l44.175-119.626h36l-44.165,119.626ZM66.936-1153.334H109.73l16.988-46.055h35.936L121.242-1087.06v-.033a.628.628,0,0,1-.054.125,11.412,11.412,0,0,1-10.475,7.186H82.626l21.085-57.209H60.917l-21.091,57.209H3.889l44.1-119.607H83.911l-16.975,46.055Zm198.294-1.075,58.57-44.98h26.84l-59.874,45.978,37.956,73.59H298.227a2.394,2.394,0,0,1,.271-.055,11.373,11.373,0,0,1-10.974-6.39.5.5,0,0,0-.077-.112l-.012.061L263.6-1132.549l-8.972,6.892-16.9,45.875H201.789l44.088-119.607H281.82l-16.59,44.98Z" fill="#d7000f" fill-rule="evenodd"/>
    <g id="Group_5672" data-name="Group 5672">
      <path id="Path_11430" data-name="Path 11430" d="M954.525-1179.552v-15.219h6.747a8.989,8.989,0,0,1,3.094.41,3.386,3.386,0,0,1,1.693,1.448,4.331,4.331,0,0,1,.632,2.295,3.827,3.827,0,0,1-1.047,2.73,5.312,5.312,0,0,1-3.24,1.412,5.21,5.21,0,0,1,1.215.757,10.44,10.44,0,0,1,1.671,2.025l2.648,4.142H965.4l-2.013-3.166q-.882-1.371-1.453-2.1a4.573,4.573,0,0,0-1.023-1.018,3.043,3.043,0,0,0-.919-.4,6,6,0,0,0-1.121-.073h-2.336v6.758Zm2.014-8.5h4.329a6.474,6.474,0,0,0,2.159-.286,2.3,2.3,0,0,0,1.184-.913,2.478,2.478,0,0,0,.4-1.365,2.263,2.263,0,0,0-.783-1.775,3.667,3.667,0,0,0-2.477-.7h-4.816Z" fill="#717171"/>
    </g>
    <path id="Path_11431" data-name="Path 11431" d="M960.8-1199.836a12.862,12.862,0,0,0-12.864,12.858,12.864,12.864,0,0,0,12.864,12.862,12.86,12.86,0,0,0,12.859-12.862A12.857,12.857,0,0,0,960.8-1199.836Zm0,24.255a11.4,11.4,0,0,1-11.4-11.4,11.4,11.4,0,0,1,11.4-11.394,11.394,11.394,0,0,1,11.4,11.394A11.4,11.4,0,0,1,960.8-1175.581Z" fill="#717171"/>
  </g>
</svg>
